<svg id="Capa_1" enable-background="new 0 0 504.5 504.5" height="512" viewBox="0 0 504.5 504.5" width="512" xmlns="http://www.w3.org/2000/svg"><g><path d="m432.3 333.13v163.87h-359.61v-163.87c0-14.27 3.39-28.09 9.6-40.36 6.22-12.28 15.27-23.02 26.61-31.11 13.97-10 30.56-15.35 47.54-15.35h36.25l62.74 5.63 56.86-5.63h36.25c8.5 0 16.89 1.34 24.91 3.93 8.01 2.58 15.65 6.42 22.64 11.42 22.66 16.2 36.21 42.92 36.21 71.47z" fill="#08a9f1"/><path d="m396.091 261.659c-6.99-4.999-14.635-8.838-22.642-11.42-8.018-2.592-16.407-3.927-24.906-3.927h-23.117c8.499 0 16.889 1.334 24.906 3.927 8.007 2.582 15.653 6.421 22.642 11.42 22.664 16.199 36.206 42.922 36.206 71.471v163.866h23.117v-163.866c-.001-28.549-13.542-55.272-36.206-71.471z" fill="#0290cf"/><path d="m370.204 127.784v-73.806c0-29.811-24.167-53.978-53.978-53.978h-127.466c-29.811 0-53.978 24.167-53.978 53.978v73.806z" fill="#ffb09e"/><path d="m370.204 127.784v-73.806c0-29.811-24.167-53.978-53.978-53.978h-127.466c-29.811 0-53.978 24.167-53.978 53.978v73.806z" fill="#ffcebf"/><path d="m316.226 0h-18.971c29.811 0 53.978 24.167 53.978 53.978v73.806h18.971v-73.806c0-29.811-24.167-53.978-53.978-53.978z" fill="#ffb09e"/><path d="m72.689 410.004h359.607v86.992h-359.607z" fill="#62dbfb"/><path d="m409.325 410.004v74.635c0 6.825-5.533 12.357-12.357 12.357h35.329v-86.992z" fill="#01d0fb"/><path d="m164.06 66.4 4.563 78.11h-26.563c-19.53-.22-35.3-16.13-35.3-35.71v-6.7c0-19.58 15.77-35.48 35.3-35.7z" fill="#8379c1"/><path d="m336.585 144.509h25.935c19.72 0 35.706-15.986 35.706-35.706v-6.701c0-19.72-15.986-35.706-35.706-35.706h-21.595z" fill="#8379c1"/><path d="m362.52 66.396h-20.133c19.72 0 35.706 15.986 35.706 35.706v6.7c0 19.72-15.986 35.706-35.706 35.706h20.133c19.72 0 35.706-15.986 35.706-35.706v-6.7c0-19.72-15.986-35.706-35.706-35.706z" fill="#6e61b6"/><g><path d="m432.3 402.5v15h-70c-4.14 0-7.5-3.36-7.5-7.5s3.36-7.5 7.5-7.5z" fill="#0290cf"/></g><g><path d="m151.19 410c0 4.14-3.36 7.5-7.5 7.5h-71v-15h71c4.14 0 7.5 3.36 7.5 7.5z" fill="#0290cf"/></g><path d="m367.305 497h-229.624v-140.017c0-5.256 4.261-9.517 9.517-9.517h210.589c5.256 0 9.517 4.261 9.517 9.517v140.017z" fill="#e0edf1"/><path d="m357.787 347.465h-20.971c5.256 0 9.517 4.261 9.517 9.517v140.018h20.971v-140.018c.001-5.256-4.26-9.517-9.517-9.517z" fill="#a8d3d8"/><circle cx="252.493" cy="425.592" fill="#8379c1" r="20.971"/><g><path d="m312.29 246.31-9.132 50.591c-1.041 5.766-6.059 9.959-11.918 9.959h-77.491c-5.858 0-10.876-4.193-11.918-9.957l-9.141-50.593z" fill="#62dbfb"/><path d="m291.323 246.308-8.839 48.935c-1.215 6.727-7.071 11.62-13.907 11.62h22.661c5.858 0 10.877-4.193 11.918-9.958l9.139-50.597z" fill="#01d0fb"/></g><path d="m312.39 175.722h-119.794c-15.76 0-28.535-12.776-28.535-28.535v-87.43c0-15.76 12.776-28.535 28.535-28.535h119.794c15.76 0 28.535 12.776 28.535 28.535v87.43c0 15.759-12.776 28.535-28.535 28.535z" fill="#62dbfb"/><path d="m312.39 31.222h-20.971c15.76 0 28.535 12.776 28.535 28.535v87.43c0 15.76-12.776 28.535-28.535 28.535h20.971c15.76 0 28.535-12.776 28.535-28.535v-87.43c0-15.76-12.776-28.535-28.535-28.535z" fill="#01d0fb"/><circle cx="208.635" cy="96.823" fill="#e0edf1" r="18.176"/><circle cx="297.55" cy="96.823" fill="#e0edf1" r="18.176"/><path d="m142.06 66.4h22v78.11h-22z" fill="#6e61b6"/><g><path d="m252.229 155.801c-11.056 0-21.462-5.894-27.158-15.381-2.133-3.551-.982-8.158 2.569-10.29 3.548-2.131 8.157-.982 10.29 2.569 3.047 5.073 8.392 8.102 14.299 8.102 6.123 0 11.741-3.35 14.662-8.741 1.972-3.643 6.521-4.998 10.167-3.022 3.642 1.973 4.995 6.524 3.022 10.167-5.545 10.236-16.218 16.596-27.851 16.596z" fill="#0290cf"/></g><g><path d="m235.402 210.021h-54.035c-29.823 0-54.086-24.263-54.086-54.085v-28.151c0-4.143 3.357-7.5 7.5-7.5s7.5 3.357 7.5 7.5v28.151c0 21.552 17.534 39.085 39.086 39.085h54.035c4.143 0 7.5 3.357 7.5 7.5s-3.357 7.5-7.5 7.5z" fill="#678d98"/></g><g><path d="m473.324 504.5h-442.148c-4.143 0-7.5-3.357-7.5-7.5s3.357-7.5 7.5-7.5h442.148c4.143 0 7.5 3.357 7.5 7.5s-3.357 7.5-7.5 7.5z" fill="#678d98"/></g><g><path d="m244.75 246.31h15v60.55h-15z" fill="#08a9f1"/></g></g></svg>